<?xml version="1.0" standalone="no"?>
<!DOCTYPE svg PUBLIC "-//W3C//DTD SVG 20010904//EN"
 "http://www.w3.org/TR/2001/REC-SVG-20010904/DTD/svg10.dtd">
<svg version="1.0" xmlns="http://www.w3.org/2000/svg"
 width="256.000000pt" height="256.000000pt" viewBox="0 0 256.000000 256.000000"
 preserveAspectRatio="xMidYMid meet">
<metadata>
Created by potrace 1.14, written by Peter Selinger 2001-2017
</metadata>
<g transform="translate(0.000000,256.000000) scale(0.100000,-0.100000)"
fill="#000000" stroke="none">
<path d="M1150 2555 c-8 -2 -49 -9 -90 -16 -91 -16 -74 -12 -145 -33 -450
-133 -786 -500 -891 -976 -25 -113 -27 -349 -3 -475 102 -542 528 -958 1064
-1039 94 -14 326 -15 395 -2 14 3 41 8 60 11 19 4 82 22 140 41 435 144 752
498 851 949 26 117 33 357 13 470 -97 550 -510 961 -1064 1060 -38 7 -306 15
-330 10z m240 -109 c318 -25 633 -203 835 -471 82 -108 180 -330 201 -454 3
-14 9 -41 14 -60 10 -37 7 -339 -4 -386 -38 -164 -69 -249 -133 -365 -101
-185 -276 -359 -463 -458 -186 -100 -358 -143 -568 -143 -197 1 -362 42 -543
138 -306 161 -532 464 -599 803 -31 159 -29 338 6 485 8 33 17 69 19 80 11 49
72 187 117 262 191 323 534 540 903 570 39 3 71 7 73 8 2 2 14 1 142 -9z"/>
<path d="M1086 1901 c-15 -17 -85 -199 -206 -536 -35 -99 -88 -245 -174 -481
-36 -100 -66 -188 -66 -197 0 -34 67 -59 89 -33 7 8 45 104 85 213 l72 198
234 0 234 0 72 -198 c40 -109 78 -205 85 -213 14 -17 50 -14 74 6 12 10 15 23
11 42 -3 16 -60 178 -127 361 -67 183 -125 343 -129 357 -35 108 -171 466
-182 475 -25 24 -54 26 -72 6z m199 -645 c14 -38 25 -72 25 -76 0 -3 -85 -6
-190 -7 -104 0 -190 3 -190 8 0 4 16 52 36 106 20 54 60 165 90 246 29 82 57
153 60 159 6 9 73 -163 169 -436z"/>
<path d="M1617 1902 c-13 -14 -17 -39 -17 -108 l0 -89 -77 2 c-104 2 -133 -9
-133 -53 0 -45 20 -54 124 -54 l86 0 0 -86 c0 -99 10 -124 48 -124 51 0 57 12
59 107 1 48 2 91 2 96 1 4 41 7 89 7 73 0 92 3 105 18 21 23 21 42 3 67 -12
16 -28 20 -101 21 -47 1 -89 4 -91 7 -3 3 -6 43 -8 90 -1 53 -7 91 -15 101
-18 21 -54 20 -74 -2z"/>
</g>
</svg>
